<svg width="24" height="24" viewBox="0 0 24 24" fill="none" xmlns="http://www.w3.org/2000/svg">
<path d="M14.2761 1.25793L16.2029 5.32462C16.5188 5.99035 17.1285 6.45175 17.8341 6.55862L22.1432 7.21083C23.9198 7.47965 24.6292 9.75327 23.3435 11.0585L20.2245 14.2235C19.7141 14.7418 19.4811 15.4886 19.6016 16.2204L20.3376 20.69C20.6414 22.5329 18.7839 23.9379 17.1953 23.0681L13.3411 20.959C12.7101 20.6133 11.9561 20.6133 11.325 20.959L7.47073 23.0695C5.88216 23.9393 4.02463 22.5327 4.32845 20.6914L5.06446 16.2218C5.18548 15.4895 4.95235 14.7422 4.44156 14.2235L1.32333 11.0581C0.0375843 9.75291 0.747076 7.47929 2.52366 7.21047L6.83276 6.55826C7.53834 6.45138 8.1481 5.98995 8.46391 5.32426L10.3899 1.25798C11.1854 -0.41929 13.4807 -0.419346 14.2761 1.25793Z" fill="#34B67A"/>
</svg>
