<svg width="24" height="24" viewBox="0 0 24 24" fill="none" xmlns="http://www.w3.org/2000/svg">
<path d="M13.9429 1.25793L15.8697 5.32462C16.1855 5.99035 16.7953 6.45175 17.5008 6.55862L21.8099 7.21083C23.5865 7.47965 24.296 9.75327 23.0103 11.0585L19.8912 14.2235C19.3808 14.7418 19.1479 15.4886 19.2683 16.2204L20.0044 20.69C20.3082 22.5329 18.4506 23.9379 16.8621 23.0681L13.0078 20.959C12.3768 20.6133 11.6228 20.6133 10.9917 20.959L7.13747 23.0695C5.54891 23.9393 3.69138 22.5327 3.99519 20.6914L4.73121 16.2218C4.85223 15.4895 4.61909 14.7422 4.10831 14.2235L0.990074 11.0581C-0.295668 9.75291 0.413824 7.47929 2.19041 7.21047L6.49951 6.55826C7.20509 6.45138 7.81485 5.98995 8.13065 5.32426L10.0567 1.25798C10.8521 -0.41929 13.1475 -0.419346 13.9429 1.25793Z" fill="#34B67A"/>
</svg>
