<svg width="24" height="24" viewBox="0 0 24 24" fill="none" xmlns="http://www.w3.org/2000/svg">
<path d="M13.6094 1.25793L15.5362 5.32462C15.852 5.99035 16.4618 6.45175 17.1673 6.55862L21.4764 7.21083C23.253 7.47965 23.9625 9.75327 22.6768 11.0585L19.5577 14.2235C19.0473 14.7418 18.8144 15.4886 18.9349 16.2204L19.6709 20.69C19.9747 22.5329 18.1171 23.9379 16.5286 23.0681L12.6743 20.959C12.0433 20.6133 11.2893 20.6133 10.6582 20.959L6.80398 23.0695C5.21541 23.9393 3.35788 22.5327 3.6617 20.6914L4.39771 16.2218C4.51873 15.4895 4.2856 14.7422 3.77482 14.2235L0.656578 11.0581C-0.629164 9.75291 0.0803284 7.47929 1.85691 7.21047L6.16601 6.55826C6.87159 6.45138 7.48135 5.98995 7.79716 5.32426L9.72319 1.25798C10.5186 -0.41929 12.814 -0.419346 13.6094 1.25793Z" fill="#D1D9E2"/>
</svg>
