<svg width="13" height="13" viewBox="0 0 13 13" fill="none" xmlns="http://www.w3.org/2000/svg">
<path d="M4.41608 6.50018C4.41608 5.34861 5.34909 4.41483 6.50033 4.41483C7.65157 4.41483 8.58508 5.34861 8.58508 6.50018C8.58508 7.65176 7.65157 8.58554 6.50033 8.58554C5.34909 8.58554 4.41608 7.65176 4.41608 6.50018ZM3.28911 6.50018C3.28911 8.27426 4.72677 9.71234 6.50033 9.71234C8.2739 9.71234 9.71156 8.27426 9.71156 6.50018C9.71156 4.72611 8.2739 3.28803 6.50033 3.28803C4.72677 3.28803 3.28911 4.72611 3.28911 6.50018ZM9.08823 3.16067C9.08817 3.30914 9.13213 3.45429 9.21454 3.57777C9.29695 3.70125 9.41412 3.79751 9.55122 3.85438C9.68832 3.91125 9.83921 3.92618 9.98479 3.89727C10.1304 3.86836 10.2641 3.79692 10.3691 3.69198C10.4741 3.58704 10.5456 3.45331 10.5747 3.30771C10.6037 3.16211 10.5889 3.01117 10.5321 2.87398C10.4754 2.73679 10.3792 2.61951 10.2559 2.53698C10.1325 2.45445 9.98741 2.41036 9.83898 2.4103H9.83868C9.63973 2.4104 9.44895 2.48947 9.30824 2.63016C9.16753 2.77086 9.08841 2.96166 9.08823 3.16067ZM3.97382 11.5921C3.3641 11.5643 3.0327 11.4627 2.81247 11.3769C2.5205 11.2632 2.31217 11.1277 2.09314 10.9089C1.87411 10.6902 1.73853 10.482 1.62536 10.1899C1.53951 9.96972 1.43795 9.63812 1.41023 9.02823C1.37991 8.36884 1.37386 8.17077 1.37386 6.50023C1.37386 4.8297 1.38041 4.63218 1.41023 3.97224C1.438 3.36235 1.54031 3.0314 1.62536 2.81056C1.73903 2.5185 1.87441 2.31011 2.09314 2.09102C2.31187 1.87192 2.52 1.7363 2.81247 1.6231C3.0326 1.53723 3.3641 1.43564 3.97382 1.40791C4.63301 1.37759 4.83103 1.37153 6.50033 1.37153C8.16963 1.37153 8.36785 1.37809 9.0276 1.40791C9.63731 1.43569 9.96816 1.53803 10.1889 1.6231C10.4809 1.7363 10.6892 1.87222 10.9083 2.09102C11.1273 2.30981 11.2624 2.5185 11.3761 2.81056C11.4619 3.03075 11.5635 3.36235 11.5912 3.97224C11.6215 4.63218 11.6276 4.8297 11.6276 6.50023C11.6276 8.17077 11.6215 8.36829 11.5912 9.02823C11.5634 9.63812 11.4614 9.96962 11.3761 10.1899C11.2624 10.482 11.127 10.6904 10.9083 10.9089C10.6895 11.1275 10.4809 11.2632 10.1889 11.3769C9.96881 11.4627 9.63731 11.5643 9.0276 11.5921C8.3684 11.6224 8.17038 11.6284 6.50033 11.6284C4.83028 11.6284 4.63281 11.6224 3.97382 11.5921ZM3.92204 0.282513C3.25629 0.312839 2.80136 0.418433 2.40408 0.573071C1.99263 0.732762 1.64432 0.947003 1.29626 1.29461C0.948203 1.64222 0.734575 1.99118 0.574929 2.40275C0.420336 2.8004 0.314773 3.2552 0.284455 3.92114C0.253636 4.58814 0.246582 4.80138 0.246582 6.50018C0.246582 8.19899 0.253636 8.41223 0.284455 9.07923C0.314773 9.74522 0.420336 10.2 0.574929 10.5976C0.734575 11.0089 0.948253 11.3583 1.29626 11.7058C1.64427 12.0532 1.99263 12.2672 2.40408 12.4273C2.80211 12.5819 3.25629 12.6875 3.92204 12.7179C4.58919 12.7482 4.80201 12.7557 6.50033 12.7557C8.19865 12.7557 8.41183 12.7487 9.07863 12.7179C9.74443 12.6875 10.199 12.5819 10.5966 12.4273C11.0078 12.2672 11.3563 12.0534 11.7044 11.7058C12.0525 11.3581 12.2656 11.0089 12.4257 10.5976C12.5803 10.2 12.6864 9.74517 12.7162 9.07923C12.7465 8.41173 12.7536 8.19899 12.7536 6.50018C12.7536 4.80138 12.7465 4.58814 12.7162 3.92114C12.6859 3.25515 12.5803 2.80015 12.4257 2.40275C12.2656 1.99143 12.0519 1.64277 11.7044 1.29461C11.3569 0.946452 11.0078 0.732762 10.5971 0.573071C10.199 0.418433 9.74438 0.312339 9.07913 0.282513C8.41233 0.252186 8.19915 0.244629 6.50083 0.244629C4.80251 0.244629 4.58919 0.251685 3.92204 0.282513Z" fill="white"/>
</svg>
