<svg width="13" height="14" viewBox="0 0 13 14" fill="none" xmlns="http://www.w3.org/2000/svg">
<path d="M4.41596 6.83368C4.41596 5.68211 5.34897 4.74833 6.50021 4.74833C7.65145 4.74833 8.58496 5.68211 8.58496 6.83368C8.58496 7.98525 7.65145 8.91903 6.50021 8.91903C5.34897 8.91903 4.41596 7.98525 4.41596 6.83368ZM3.28898 6.83368C3.28898 8.60776 4.72665 10.0458 6.50021 10.0458C8.27377 10.0458 9.71143 8.60776 9.71143 6.83368C9.71143 5.05961 8.27377 3.62153 6.50021 3.62153C4.72665 3.62153 3.28898 5.05961 3.28898 6.83368ZM9.08811 3.49416C9.08805 3.64263 9.13201 3.78778 9.21442 3.91126C9.29683 4.03474 9.41399 4.131 9.5511 4.18788C9.6882 4.24475 9.83909 4.25967 9.98467 4.23077C10.1303 4.20186 10.264 4.13042 10.369 4.02548C10.474 3.92054 10.5455 3.78681 10.5745 3.64121C10.6035 3.4956 10.5887 3.34466 10.532 3.20747C10.4753 3.07029 10.3791 2.95301 10.2557 2.87048C10.1324 2.78794 9.98729 2.74386 9.83886 2.7438H9.83856C9.63961 2.74389 9.44883 2.82297 9.30812 2.96366C9.16741 3.10435 9.08828 3.29516 9.08811 3.49416V3.49416ZM3.97369 11.9256C3.36398 11.8978 3.03258 11.7962 2.81235 11.7104C2.52037 11.5967 2.31205 11.4612 2.09302 11.2424C1.87399 11.0237 1.7384 10.8155 1.62524 10.5234C1.53939 10.3032 1.43782 9.97162 1.41011 9.36173C1.37979 8.70234 1.37374 8.50426 1.37374 6.83373C1.37374 5.1632 1.38029 4.96567 1.41011 4.30574C1.43787 3.69584 1.54019 3.3649 1.62524 3.14405C1.7389 2.85199 1.87429 2.64361 2.09302 2.42451C2.31175 2.20542 2.51987 2.0698 2.81235 1.9566C3.03248 1.87072 3.36398 1.76913 3.97369 1.74141C4.63289 1.71108 4.83091 1.70503 6.50021 1.70503C8.16951 1.70503 8.36773 1.71158 9.02747 1.74141C9.63719 1.76918 9.96804 1.87152 10.1888 1.9566C10.4808 2.0698 10.6891 2.20572 10.9082 2.42451C11.1272 2.64331 11.2623 2.85199 11.3759 3.14405C11.4618 3.36425 11.5633 3.69584 11.5911 4.30574C11.6214 4.96567 11.6274 5.1632 11.6274 6.83373C11.6274 8.50426 11.6214 8.70179 11.5911 9.36173C11.5633 9.97162 11.4612 10.3031 11.3759 10.5234C11.2623 10.8155 11.1269 11.0239 10.9082 11.2424C10.6894 11.461 10.4808 11.5967 10.1888 11.7104C9.96869 11.7962 9.63719 11.8978 9.02747 11.9256C8.36828 11.9559 8.17026 11.9619 6.50021 11.9619C4.83016 11.9619 4.63269 11.9559 3.97369 11.9256V11.9256ZM3.92191 0.616009C3.25616 0.646336 2.80124 0.751929 2.40395 0.906567C1.99251 1.06626 1.6442 1.2805 1.29614 1.62811C0.948081 1.97572 0.734453 2.32468 0.574807 2.73624C0.420214 3.13389 0.314651 3.5887 0.284333 4.25464C0.253514 4.92163 0.24646 5.13487 0.24646 6.83368C0.24646 8.53249 0.253514 8.74573 0.284333 9.41272C0.314651 10.0787 0.420214 10.5335 0.574807 10.9311C0.734453 11.3424 0.948131 11.6918 1.29614 12.0393C1.64415 12.3867 1.99251 12.6007 2.40395 12.7608C2.80199 12.9154 3.25616 13.021 3.92191 13.0514C4.58906 13.0817 4.80189 13.0892 6.50021 13.0892C8.19853 13.0892 8.41171 13.0822 9.07851 13.0514C9.7443 13.021 10.1989 12.9154 10.5965 12.7608C11.0077 12.6007 11.3562 12.3869 11.7043 12.0393C12.0523 11.6916 12.2655 11.3424 12.4256 10.9311C12.5802 10.5335 12.6863 10.0787 12.7161 9.41272C12.7464 8.74523 12.7535 8.53249 12.7535 6.83368C12.7535 5.13487 12.7464 4.92163 12.7161 4.25464C12.6858 3.58865 12.5802 3.13364 12.4256 2.73624C12.2655 2.32493 12.0518 1.97627 11.7043 1.62811C11.3568 1.27995 11.0077 1.06626 10.597 0.906567C10.1989 0.751929 9.74425 0.645835 9.07901 0.616009C8.41221 0.585682 8.19903 0.578125 6.50071 0.578125C4.80239 0.578125 4.58906 0.585181 3.92191 0.616009Z" fill="white"/>
</svg>
