<svg width="14" height="14" viewBox="0 0 14 14" fill="none" xmlns="http://www.w3.org/2000/svg">
<path d="M4.91608 6.99994C4.91608 5.84837 5.84909 4.91459 7.00033 4.91459C8.15157 4.91459 9.08508 5.84837 9.08508 6.99994C9.08508 8.15151 8.15157 9.08529 7.00033 9.08529C5.84909 9.08529 4.91608 8.15151 4.91608 6.99994ZM3.78911 6.99994C3.78911 8.77402 5.22677 10.2121 7.00033 10.2121C8.7739 10.2121 10.2116 8.77402 10.2116 6.99994C10.2116 5.22586 8.7739 3.78779 7.00033 3.78779C5.22677 3.78779 3.78911 5.22586 3.78911 6.99994ZM9.58823 3.66042C9.58817 3.80889 9.63213 3.95404 9.71454 4.07752C9.79695 4.201 9.91412 4.29726 10.0512 4.35414C10.1883 4.41101 10.3392 4.42593 10.4848 4.39703C10.6304 4.36812 10.7641 4.29668 10.8691 4.19174C10.9741 4.0868 11.0456 3.95307 11.0747 3.80747C11.1037 3.66186 11.0889 3.51092 11.0321 3.37373C10.9754 3.23655 10.8792 3.11927 10.7559 3.03674C10.6325 2.9542 10.4874 2.91012 10.339 2.91006H10.3387C10.1397 2.91015 9.94895 2.98923 9.80824 3.12992C9.66753 3.27061 9.58841 3.46142 9.58823 3.66042ZM4.47382 12.0918C3.8641 12.064 3.5327 11.9624 3.31247 11.8766C3.0205 11.7629 2.81217 11.6275 2.59314 11.4087C2.37411 11.1899 2.23853 10.9817 2.12536 10.6897C2.03951 10.4695 1.93795 10.1379 1.91023 9.52799C1.87991 8.8686 1.87386 8.67052 1.87386 6.99999C1.87386 5.32946 1.88041 5.13193 1.91023 4.472C1.938 3.8621 2.04031 3.53116 2.12536 3.31031C2.23903 3.01825 2.37441 2.80987 2.59314 2.59077C2.81187 2.37168 3.02 2.23606 3.31247 2.12286C3.5326 2.03698 3.8641 1.93539 4.47382 1.90767C5.13301 1.87734 5.33103 1.87129 7.00033 1.87129C8.66963 1.87129 8.86785 1.87784 9.5276 1.90767C10.1373 1.93544 10.4682 2.03778 10.6889 2.12286C10.9809 2.23606 11.1892 2.37198 11.4083 2.59077C11.6273 2.80957 11.7624 3.01825 11.8761 3.31031C11.9619 3.53051 12.0635 3.8621 12.0912 4.472C12.1215 5.13193 12.1276 5.32946 12.1276 6.99999C12.1276 8.67052 12.1215 8.86805 12.0912 9.52799C12.0634 10.1379 11.9614 10.4694 11.8761 10.6897C11.7624 10.9817 11.627 11.1901 11.4083 11.4087C11.1895 11.6273 10.9809 11.7629 10.6889 11.8766C10.4688 11.9625 10.1373 12.0641 9.5276 12.0918C8.8684 12.1221 8.67038 12.1282 7.00033 12.1282C5.33028 12.1282 5.13281 12.1221 4.47382 12.0918ZM4.42204 0.782268C3.75629 0.812595 3.30136 0.918189 2.90408 1.07283C2.49263 1.23252 2.14432 1.44676 1.79626 1.79437C1.4482 2.14198 1.23457 2.49094 1.07493 2.9025C0.920336 3.30015 0.814773 3.75496 0.784455 4.4209C0.753636 5.08789 0.746582 5.30113 0.746582 6.99994C0.746582 8.69875 0.753636 8.91199 0.784455 9.57898C0.814773 10.245 0.920336 10.6997 1.07493 11.0974C1.23457 11.5087 1.44825 11.8581 1.79626 12.2055C2.14427 12.553 2.49263 12.7669 2.90408 12.9271C3.30211 13.0817 3.75629 13.1873 4.42204 13.2176C5.08919 13.2479 5.30201 13.2555 7.00033 13.2555C8.69865 13.2555 8.91183 13.2484 9.57863 13.2176C10.2444 13.1873 10.699 13.0817 11.0966 12.9271C11.5078 12.7669 11.8563 12.5531 12.2044 12.2055C12.5525 11.8579 12.7656 11.5087 12.9257 11.0974C13.0803 10.6997 13.1864 10.2449 13.2162 9.57898C13.2465 8.91149 13.2536 8.69875 13.2536 6.99994C13.2536 5.30113 13.2465 5.08789 13.2162 4.4209C13.1859 3.75491 13.0803 3.2999 12.9257 2.9025C12.7656 2.49119 12.5519 2.14253 12.2044 1.79437C11.8569 1.44621 11.5078 1.23252 11.0971 1.07283C10.699 0.918189 10.2444 0.812095 9.57913 0.782268C8.91233 0.751941 8.69915 0.744385 7.00083 0.744385C5.30251 0.744385 5.08919 0.751441 4.42204 0.782268Z" fill="white"/>
</svg>
