<svg width="23" height="22" viewBox="0 0 23 22" fill="none" xmlns="http://www.w3.org/2000/svg">
<path d="M22.2826 11.2531C22.2826 10.5054 22.222 9.75357 22.0926 9.01794H11.7171V13.2538H17.6587C17.4121 14.62 16.6199 15.8285 15.4599 16.5965V19.345H19.0046C21.0862 17.4291 22.2826 14.5998 22.2826 11.2531Z" fill="#4285F4"/>
<path d="M11.7175 22.0003C14.6843 22.0003 17.1862 21.0262 19.0091 19.3448L15.4643 16.5963C14.4781 17.2673 13.2049 17.6472 11.7216 17.6472C8.85181 17.6472 6.41859 15.7111 5.54554 13.1082H1.88763V15.9415C3.75499 19.656 7.55841 22.0003 11.7175 22.0003Z" fill="#34A853"/>
<path d="M5.54143 13.1086C5.08066 11.7425 5.08066 10.2631 5.54143 8.89696V6.0636H1.88756C0.327395 9.17181 0.327395 12.8338 1.88756 15.942L5.54143 13.1086Z" fill="#FBBC04"/>
<path d="M11.7175 4.35386C13.2858 4.3296 14.8015 4.91972 15.9373 6.00295L19.0778 2.8624C17.0892 0.995046 14.4499 -0.0315938 11.7175 0.000741277C7.55843 0.000741277 3.75502 2.34504 1.88766 6.06357L5.54153 8.89694C6.41054 6.28992 8.8478 4.35386 11.7175 4.35386Z" fill="#EA4335"/>
</svg>
