<svg width="11" height="11" viewBox="0 0 11 11" fill="none" xmlns="http://www.w3.org/2000/svg">
<path d="M2.64391 10.5043V3.75104H0.401233V10.5043H2.64414H2.64391ZM1.52304 2.82916C2.30494 2.82916 2.79173 2.31059 2.79173 1.66253C2.77709 0.9997 2.30494 0.495605 1.53791 0.495605C0.770348 0.495605 0.269043 0.9997 0.269043 1.66247C0.269043 2.31053 0.755654 2.8291 1.50834 2.8291H1.52286L1.52304 2.82916ZM3.88526 10.5043H6.12775V6.73336C6.12775 6.5318 6.14239 6.3297 6.20164 6.18573C6.36368 5.7823 6.73268 5.3647 7.35236 5.3647C8.16365 5.3647 8.48839 5.98393 8.48839 6.89186V10.5043H10.7308V6.63217C10.7308 4.55796 9.6246 3.59272 8.14913 3.59272C6.93946 3.59272 6.40818 4.26943 6.113 4.73034H6.12793V3.75127H3.88537C3.91465 4.38481 3.8852 10.5045 3.8852 10.5045L3.88526 10.5043Z" fill="white"/>
</svg>
