<svg width="11" height="11" viewBox="0 0 11 11" fill="none" xmlns="http://www.w3.org/2000/svg">
<path d="M2.64403 10.8378V4.08454H0.401356V10.8378H2.64426H2.64403ZM1.52316 3.16266C2.30506 3.16266 2.79185 2.64409 2.79185 1.99603C2.77721 1.3332 2.30506 0.829102 1.53803 0.829102C0.770471 0.829102 0.269165 1.3332 0.269165 1.99597C0.269165 2.64403 0.755776 3.1626 1.50847 3.1626H1.52298L1.52316 3.16266ZM3.88538 10.8378H6.12788V7.06686C6.12788 6.86529 6.14251 6.6632 6.20176 6.51923C6.36381 6.1158 6.7328 5.69819 7.35248 5.69819C8.16378 5.69819 8.48852 6.31743 8.48852 7.22536V10.8378H10.731V6.96567C10.731 4.89145 9.62472 3.92621 8.14926 3.92621C6.93958 3.92621 6.4083 4.60293 6.11312 5.06384H6.12805V4.08477H3.8855C3.91477 4.7183 3.88532 10.838 3.88532 10.838L3.88538 10.8378Z" fill="white"/>
</svg>
